# xmcd CD database file
#
# Track frame offsets:
#	150
#	16474
#	38128
#	61812
#	82901
#	98554
#	119837
#	145329
#	165325
#	190119
#	213145
#	237480
#	257739
#	269387
#
# Disc length: 3889 seconds
#
# Revision: 0
# Processed by: cddbd v1.4PL0 Copyright (c) Steve Scherf et al.
# Submitted via: CDex 1.51
#
DISCID=ba0f2f0e
DTITLE=Collective - The Love With Jazz
DYEAR=1900
DGENRE=Jazz
TTITLE0=After U Get What U Want You Don't Want To
TTITLE1=The Folks Who Live On The Hill
TTITLE2=I've Got A Smile
TTITLE3=The Night Has A Thousand Eyes
TTITLE4=A Little Bit Scared
TTITLE5=Days Of Wine And Roses
TTITLE6=Zanaibar
TTITLE7=Desafinado
TTITLE8=The New Year's Song
TTITLE9=Day Dream
TTITLE10=Everything Happens To Me
TTITLE11=Medley For
TTITLE12=I Like Someone In Love
TTITLE13=Moondance
EXTD=
EXTT0=
EXTT1=
EXTT2=
EXTT3=
EXTT4=
EXTT5=
EXTT6=
EXTT7=
EXTT8=
EXTT9=
EXTT10=
EXTT11=
EXTT12=
EXTT13=
PLAYORDER=
